<svg id="圖層_1" data-name="圖層 1" xmlns="http://www.w3.org/2000/svg" viewBox="0 0 1412.83 993.85"><defs><style>.cls-1{fill:#5dd4ef;}.cls-2{fill:#2768f6;}.cls-3{fill:#45a8de;}</style></defs><title>meetjobslogo</title><g id="meetjobs_standard" data-name="meetjobs standard"><g id="meetjobs_brandmark" data-name="meetjobs brandmark"><path id="right_employees" data-name="right employees" class="cls-1" d="M763.22,502.81,906.17,788.27a79.26,79.26,0,0,0,71.24,44h278.7a33.19,33.19,0,0,0,33.15-33.16,32.79,32.79,0,0,0-3.45-14.77l-301-603.56a33.18,33.18,0,0,0-59.36-.11Zm492.89,402.54H977.41A152.64,152.64,0,0,1,840.87,821L681.48,502.72l178.7-354.88a106.21,106.21,0,0,1,190,.36l301,603.57a106.24,106.24,0,0,1-95.06,153.58Z"/><path id="left_standard_blue" data-name="left standard blue" class="cls-2" d="M460.87,180.77,158.81,784.33a32.71,32.71,0,0,0-3.47,14.81,33.19,33.19,0,0,0,33.15,33.16h278a79.27,79.27,0,0,0,71.16-43.88l143.86-285.7-161.23-322a33.19,33.19,0,0,0-59.34-.07l0,.09Zm5.59,724.58h-278a106.25,106.25,0,0,1-95-153.71l302-603.47.21-.41a106.21,106.21,0,0,1,189.83.28L763.22,502.81,602.85,821.28a152.61,152.61,0,0,1-136.39,84.07Z"/><polygon id="intersection" class="cls-3" points="722.44 421.39 681.48 502.72 722.26 584.15 763.21 502.81 722.44 421.39"/></g></g></svg>